<?xml version="1.0" encoding="utf-8"?>
<!-- Generator: Adobe Illustrator 16.0.0, SVG Export Plug-In . SVG Version: 6.00 Build 0)  -->
<!DOCTYPE svg PUBLIC "-//W3C//DTD SVG 1.1//EN" "http://www.w3.org/Graphics/SVG/1.1/DTD/svg11.dtd">
<svg version="1.1" id="SIG_color" xmlns="http://www.w3.org/2000/svg" xmlns:xlink="http://www.w3.org/1999/xlink" x="0px" y="0px"
	 width="288px" height="108px" viewBox="0 0 288 108" enable-background="new 0 0 288 108" xml:space="preserve">
<g>
	<g>
		<g>
			<defs>
				<rect id="SVGID_1_" x="19" y="14.895" width="250" height="61.701"/>
			</defs>
			<clipPath id="SVGID_2_">
				<use xlink:href="#SVGID_1_"  overflow="visible"/>
			</clipPath>
			<path clip-path="url(#SVGID_2_)" fill-rule="evenodd" clip-rule="evenodd" fill="#231F20" d="M82.164,47.963h2.343
				c4.325,0,5.961,2.163,5.961,6.497c0,4.272-1.402,6.493-5.264,6.493h-3.041V47.963L82.164,47.963z M82.164,30.666h2.751
				c3.213,0,4.737,2.041,4.737,5.957c0,3.504-2.104,5.38-4.855,5.38h-2.633V30.666L82.164,30.666z M74.915,66.911h11.462
				c8.241,0,11.343-5.255,11.343-12.219c0-5.434-2.164-8.359-5.847-10c3.51-1.406,5.026-5.199,5.026-8.826
				c0-7.201-3.449-11.173-11.226-11.173H74.915V66.911L74.915,66.911z"/>
			<polygon clip-path="url(#SVGID_2_)" fill="#231F20" points="107.137,66.911 107.137,24.693 100.586,24.693 100.586,66.911 
				107.137,66.911 			"/>
			<path clip-path="url(#SVGID_2_)" fill="#231F20" d="M124.675,35.451v24.677c-1.522,1.115-2.806,1.985-4.214,1.985
				c-1.4,0-2.337-0.69-2.337-2.275V35.451h-6.552v25.437c0,4.094,2.05,6.604,5.498,6.604c3.807,0,5.206-1.393,7.958-3.735v3.155
				h6.191v-31.46H124.675L124.675,35.451z"/>
			<path clip-path="url(#SVGID_2_)" fill-rule="evenodd" clip-rule="evenodd" fill="#231F20" d="M141.795,47.038v-1.644
				c0-3.626,1.283-5.144,3.627-5.144c2.337,0,3.619,1.518,3.619,5.144v1.644H141.795L141.795,47.038z M155.592,46.568
				c0-6.909-2.687-11.695-10.17-11.695c-7.488,0-10.178,4.786-10.178,11.695v9.241c0,6.896,2.689,11.682,10.178,11.682
				c7.311,0,10.056-4.551,10.17-11.227h-6.551v0.703c0,3.628-1.282,5.146-3.619,5.146c-2.344,0-3.627-1.518-3.627-5.146v-4.552
				h13.797V46.568L155.592,46.568z"/>
			<path clip-path="url(#SVGID_2_)" fill="#231F20" d="M161.367,40.83v19.588c0,4.796,2.746,7.073,7.667,7.073
				c1.63,0,2.39-0.11,3.27-0.345v-5.613h-2.162c-1.52,0-2.222-0.938-2.222-2.578V40.83h4.384v-5.379h-4.384v-8.467h-6.553v8.467
				h-3.624v5.379H161.367L161.367,40.83z"/>
			<path clip-path="url(#SVGID_2_)" fill-rule="evenodd" clip-rule="evenodd" fill="#231F20" d="M188.842,56.968
				c0,3.628-1.295,5.146-3.629,5.146c-2.34,0-3.626-1.518-3.626-5.146V45.395c0-3.626,1.286-5.144,3.626-5.144
				c2.334,0,3.629,1.518,3.629,5.144V56.968L188.842,56.968z M175.036,55.81c0,6.896,2.689,11.682,10.177,11.682
				c7.479,0,10.169-4.786,10.169-11.682v-9.241c0-6.909-2.689-11.695-10.169-11.695c-7.487,0-10.177,4.786-10.177,11.695V55.81
				L175.036,55.81z"/>
			<path clip-path="url(#SVGID_2_)" fill-rule="evenodd" clip-rule="evenodd" fill="#231F20" d="M212.625,56.968
				c0,3.628-1.284,5.146-3.629,5.146c-2.332,0-3.627-1.518-3.627-5.146V45.395c0-3.626,1.295-5.144,3.627-5.144
				c2.345,0,3.629,1.518,3.629,5.144V56.968L212.625,56.968z M198.829,55.81c0,6.896,2.691,11.682,10.167,11.682
				c7.488,0,10.18-4.786,10.18-11.682v-9.241c0-6.909-2.691-11.695-10.18-11.695c-7.476,0-10.167,4.786-10.167,11.695V55.81
				L198.829,55.81z"/>
			<path clip-path="url(#SVGID_2_)" fill="#231F20" d="M224.777,40.83v19.588c0,4.796,2.745,7.073,7.654,7.073
				c1.64,0,2.399-0.11,3.284-0.345v-5.613h-2.165c-1.52,0-2.223-0.938-2.223-2.578V40.83h4.388v-5.379h-4.388v-8.467h-6.551v8.467
				h-3.625v5.379H224.777L224.777,40.83z"/>
			<path clip-path="url(#SVGID_2_)" fill="#231F20" d="M246.336,66.911V42.236c1.517-1.115,2.812-1.985,4.206-1.985
				c1.407,0,2.347,0.704,2.347,2.277v24.383h6.549V41.479c0-4.097-2.056-6.606-5.504-6.606c-3.793,0-5.2,1.406-7.598,3.504V24.693
				h-6.553v42.218H246.336L246.336,66.911z"/>
			<path clip-path="url(#SVGID_2_)" fill-rule="evenodd" clip-rule="evenodd" fill="#0060A9" d="M44.554,30.309l5.061,5.062
				l-5.057,5.059L44.554,30.309L44.554,30.309z M44.554,61.274l5.061-5.063l-5.057-5.044L44.554,61.274L44.554,61.274z
				 M39.156,45.797L28.227,34.833l3.168-3.169l8.709,8.703V19.492l15.841,15.842L45.483,45.797l10.463,10.448L40.104,72.089V51.215
				l-8.709,8.702l-3.168-3.169L39.156,45.797L39.156,45.797z M42.085,76.38c13.36,0,22.562-6.347,22.562-30.584
				c0-24.251-9.202-30.596-22.562-30.596c-13.352,0-22.567,6.345-22.567,30.596C19.518,70.033,28.733,76.38,42.085,76.38
				L42.085,76.38z"/>
		</g>
		<path fill="#231F20" d="M268.766,29.222c0,2.497-2.132,4.606-4.631,4.606c-2.613,0-4.607-2.027-4.607-4.606
			c0-2.553,2.07-4.607,4.607-4.607C266.749,24.614,268.766,26.607,268.766,29.222z M260.559,29.167c0,1.985,1.604,3.696,3.576,3.696
			c1.994,0,3.581-1.628,3.581-3.6c0-1.994-1.587-3.685-3.581-3.685C262.163,25.579,260.559,27.193,260.559,29.167z M264.999,31.719
			l-1.407-2.235h-0.062v2.235h-0.883v-5.071h1.531c1.205,0,1.69,0.505,1.69,1.271c0,0.863-0.524,1.388-1.333,1.47
			c0.104,0.138,0.302,0.421,0.504,0.725l1.049,1.606H264.999z M264.094,27.353h-0.564v1.552h0.345c0.809,0,1.07-0.448,1.07-0.869
			C264.944,27.553,264.729,27.353,264.094,27.353z"/>
	</g>
	<g>
		<g>
			<path fill="#0060A9" d="M196.476,87.869c0.356,1.324,0.99,3.062,3.233,3.062c1.934,0,2.637-1.323,2.637-2.404
				c0-1.555-0.92-2.107-2.59-2.855c-1.899-0.876-4.004-1.866-4.004-4.548c0-2.116,1.45-4.753,4.81-4.753
				c3.914,0,4.823,3.165,5.02,3.892l-2.418,0.792c-0.185-0.654-0.749-2.509-2.623-2.509c-1.314,0-2.177,0.967-2.177,2.177
				c0,1.369,0.796,1.828,2.97,2.866c1.543,0.747,3.695,1.771,3.695,4.372c0,1.233-0.553,5.146-5.479,5.146
				c-4.479,0-5.203-3.35-5.468-4.579L196.476,87.869z"/>
			<path fill="#0060A9" d="M209.332,76.682h3.719l1.036,12.05l5.099-12.05h3.821l-2.706,16.113h-2.497l2.372-13.824l-5.999,13.824
				h-1.852l-1.302-13.546l-2.198,13.546h-2.211L209.332,76.682z"/>
			<path fill="#0060A9" d="M233.872,92.795h-2.637l-0.426-4.202h-4.432l-1.76,4.202h-2.464l7.056-16.113h2.75L233.872,92.795z
				 M230.086,79.409l-2.854,7.101h3.36L230.086,79.409z"/>
			<path fill="#0060A9" d="M238.13,76.682h4.361c1.865,0,4.916,0.217,4.916,4.108c0,3.626-2.256,4.488-3.072,4.811l1.889,7.194
				h-2.789l-1.666-6.769h-2.648l-1.116,6.769h-2.556L238.13,76.682z M239.478,83.979h1.889c0.793,0,1.54-0.069,2.312-0.609
				c0.922-0.646,1.117-1.981,1.117-2.603c0-1.955-1.337-2.084-2.704-2.084h-1.738L239.478,83.979z"/>
			<path fill="#0060A9" d="M252.357,78.878h-3.626l0.355-2.196h9.819l-0.367,2.196h-3.627l-2.313,13.917h-2.568L252.357,78.878z"/>
		</g>
	</g>
</g>
</svg>
