<?xml version="1.0" encoding="UTF-8" standalone="no"?>
<!DOCTYPE svg PUBLIC "-//W3C//DTD SVG 1.1//EN"
 "http://www.w3.org/Graphics/SVG/1.1/DTD/svg11.dtd">
<!-- Generated by graphviz version 2.31.20130204.0546 (20130204.0546)
 -->
<!-- Title: %3 Pages: 1 -->
<svg width="554pt" height="356pt"
 viewBox="0.00 0.00 554.00 356.00" xmlns="http://www.w3.org/2000/svg" xmlns:xlink="http://www.w3.org/1999/xlink">
<g id="graph0" class="graph" transform="scale(1 1) rotate(0) translate(4 352)">
<title>%3</title>
<polygon fill="white" stroke="white" points="-4,5 -4,-352 551,-352 551,5 -4,5"/>
<g id="clust1" class="cluster"><title>cluster_0</title>
<polygon fill="lightgrey" stroke="lightgrey" points="100,-178 100,-255 447,-255 447,-178 100,-178"/>
<text text-anchor="middle" x="273.5" y="-237" font-family="Times,serif" font-size="14.00">Robot poses</text>
</g>
<g id="clust2" class="cluster"><title>cluster_1</title>
</g>
<g id="clust3" class="cluster"><title>cluster_3</title>
</g>
<g id="clust4" class="cluster"><title>cluster_2</title>
</g>
<!-- xt0 -->
<g id="node1" class="node"><title>xt0</title>
<ellipse fill="white" stroke="black" cx="135" cy="-204" rx="27" ry="18"/>
<text text-anchor="start" x="124" y="-198.5" font-family="Times,serif" font-weight="bold" font-size="14.00">x</text>
<text text-anchor="start" x="131" y="-198.5" font-family="Times,serif" baseline-shift="sub" font-size="14.00">t&#45;1</text>
</g>
<!-- xt1 -->
<g id="node2" class="node"><title>xt1</title>
<ellipse fill="white" stroke="black" cx="227" cy="-204" rx="27" ry="18"/>
<text text-anchor="start" x="222" y="-198.5" font-family="Times,serif" font-weight="bold" font-size="14.00">x</text>
<text text-anchor="start" x="229" y="-198.5" font-family="Times,serif" baseline-shift="sub" font-size="14.00">t</text>
</g>
<!-- xt0&#45;&gt;xt1 -->
<g id="edge1" class="edge"><title>xt0&#45;&gt;xt1</title>
<path fill="none" stroke="black" d="M162.032,-204C170.632,-204 180.363,-204 189.593,-204"/>
<polygon fill="black" stroke="black" points="189.715,-207.5 199.715,-204 189.715,-200.5 189.715,-207.5"/>
</g>
<!-- zt0 -->
<g id="node9" class="node"><title>zt0</title>
<ellipse fill="grey" stroke="black" cx="227" cy="-119" rx="27" ry="18"/>
<text text-anchor="start" x="216.5" y="-113.5" font-family="Times,serif" font-weight="bold" font-size="14.00">z</text>
<text text-anchor="start" x="222.714" y="-113.5" font-family="Times,serif" baseline-shift="sub" font-size="14.00">t&#45;1</text>
</g>
<!-- xt0&#45;&gt;zt0 -->
<g id="edge17" class="edge"><title>xt0&#45;&gt;zt0</title>
<path fill="none" stroke="black" d="M151.267,-189.581C165.49,-176.148 186.885,-155.942 203.143,-140.587"/>
<polygon fill="black" stroke="black" points="205.791,-142.901 210.658,-133.49 200.984,-137.812 205.791,-142.901"/>
</g>
<!-- ut1 -->
<g id="node6" class="node"><title>ut1</title>
<ellipse fill="grey" stroke="black" cx="135" cy="-289" rx="27" ry="18"/>
<text text-anchor="start" x="130" y="-283.5" font-family="Times,serif" font-weight="bold" font-size="14.00">u</text>
<text text-anchor="start" x="137" y="-283.5" font-family="Times,serif" baseline-shift="sub" font-size="14.00">t</text>
</g>
<!-- xt0&#45;&gt;ut1 -->
<!-- xt2 -->
<g id="node3" class="node"><title>xt2</title>
<ellipse fill="white" stroke="black" cx="319" cy="-204" rx="27.0966" ry="18"/>
<text text-anchor="start" x="306.5" y="-198.5" font-family="Times,serif" font-weight="bold" font-size="14.00">x</text>
<text text-anchor="start" x="313.5" y="-198.5" font-family="Times,serif" baseline-shift="sub" font-size="14.00">t+1</text>
</g>
<!-- xt1&#45;&gt;xt2 -->
<g id="edge2" class="edge"><title>xt1&#45;&gt;xt2</title>
<path fill="none" stroke="black" d="M254.032,-204C262.556,-204 272.192,-204 281.35,-204"/>
<polygon fill="black" stroke="black" points="281.402,-207.5 291.402,-204 281.402,-200.5 281.402,-207.5"/>
</g>
<!-- zt1 -->
<g id="node10" class="node"><title>zt1</title>
<ellipse fill="grey" stroke="black" cx="319" cy="-119" rx="27" ry="18"/>
<text text-anchor="start" x="314.5" y="-113.5" font-family="Times,serif" font-weight="bold" font-size="14.00">z</text>
<text text-anchor="start" x="320.714" y="-113.5" font-family="Times,serif" baseline-shift="sub" font-size="14.00">t</text>
</g>
<!-- xt1&#45;&gt;zt1 -->
<g id="edge18" class="edge"><title>xt1&#45;&gt;zt1</title>
<path fill="none" stroke="black" d="M243.267,-189.581C257.49,-176.148 278.885,-155.942 295.143,-140.587"/>
<polygon fill="black" stroke="black" points="297.791,-142.901 302.658,-133.49 292.984,-137.812 297.791,-142.901"/>
</g>
<!-- xt3 -->
<g id="node4" class="node"><title>xt3</title>
<ellipse fill="white" stroke="black" cx="411" cy="-204" rx="27.0966" ry="18"/>
<text text-anchor="start" x="398.5" y="-198.5" font-family="Times,serif" font-weight="bold" font-size="14.00">x</text>
<text text-anchor="start" x="405.5" y="-198.5" font-family="Times,serif" baseline-shift="sub" font-size="14.00">t+2</text>
</g>
<!-- xt2&#45;&gt;xt3 -->
<g id="edge3" class="edge"><title>xt2&#45;&gt;xt3</title>
<path fill="none" stroke="black" d="M346.516,-204C354.939,-204 364.407,-204 373.41,-204"/>
<polygon fill="black" stroke="black" points="373.673,-207.5 383.673,-204 373.673,-200.5 373.673,-207.5"/>
</g>
<!-- zt2 -->
<g id="node11" class="node"><title>zt2</title>
<ellipse fill="grey" stroke="black" cx="411" cy="-119" rx="27" ry="18"/>
<text text-anchor="start" x="399" y="-113.5" font-family="Times,serif" font-weight="bold" font-size="14.00">z</text>
<text text-anchor="start" x="405.214" y="-113.5" font-family="Times,serif" baseline-shift="sub" font-size="14.00">t+1</text>
</g>
<!-- xt2&#45;&gt;zt2 -->
<g id="edge19" class="edge"><title>xt2&#45;&gt;zt2</title>
<path fill="none" stroke="black" d="M336.609,-190.214C342.503,-185.205 349.128,-179.438 355,-174 366.212,-163.618 378.258,-151.668 388.21,-141.565"/>
<polygon fill="black" stroke="black" points="390.87,-143.85 395.364,-134.255 385.868,-138.954 390.87,-143.85"/>
</g>
<!-- zt3 -->
<g id="node12" class="node"><title>zt3</title>
<ellipse fill="grey" stroke="black" cx="503" cy="-119" rx="27" ry="18"/>
<text text-anchor="start" x="491" y="-113.5" font-family="Times,serif" font-weight="bold" font-size="14.00">z</text>
<text text-anchor="start" x="497.214" y="-113.5" font-family="Times,serif" baseline-shift="sub" font-size="14.00">t+2</text>
</g>
<!-- xt3&#45;&gt;zt3 -->
<g id="edge20" class="edge"><title>xt3&#45;&gt;zt3</title>
<path fill="none" stroke="black" d="M428.609,-190.214C434.503,-185.205 441.128,-179.438 447,-174 458.212,-163.618 470.258,-151.668 480.21,-141.565"/>
<polygon fill="black" stroke="black" points="482.87,-143.85 487.364,-134.255 477.868,-138.954 482.87,-143.85"/>
</g>
<!-- ut0 -->
<g id="node5" class="node"><title>ut0</title>
<ellipse fill="grey" stroke="black" cx="43" cy="-289" rx="27" ry="18"/>
<text text-anchor="start" x="32" y="-283.5" font-family="Times,serif" font-weight="bold" font-size="14.00">u</text>
<text text-anchor="start" x="39" y="-283.5" font-family="Times,serif" baseline-shift="sub" font-size="14.00">t&#45;1</text>
</g>
<!-- ut0&#45;&gt;ut1 -->
<!-- ut0&#45;&gt;xt0 -->
<g id="edge13" class="edge"><title>ut0&#45;&gt;xt0</title>
<path fill="none" stroke="black" d="M59.2673,-274.581C73.4898,-261.148 94.8847,-240.942 111.143,-225.587"/>
<polygon fill="black" stroke="black" points="113.791,-227.901 118.658,-218.49 108.984,-222.812 113.791,-227.901"/>
</g>
<!-- ut2 -->
<g id="node7" class="node"><title>ut2</title>
<ellipse fill="grey" stroke="black" cx="227" cy="-289" rx="27.0966" ry="18"/>
<text text-anchor="start" x="214.5" y="-283.5" font-family="Times,serif" font-weight="bold" font-size="14.00">u</text>
<text text-anchor="start" x="221.5" y="-283.5" font-family="Times,serif" baseline-shift="sub" font-size="14.00">t+1</text>
</g>
<!-- ut1&#45;&gt;ut2 -->
<!-- ut1&#45;&gt;xt1 -->
<g id="edge14" class="edge"><title>ut1&#45;&gt;xt1</title>
<path fill="none" stroke="black" d="M151.267,-274.581C165.49,-261.148 186.885,-240.942 203.143,-225.587"/>
<polygon fill="black" stroke="black" points="205.791,-227.901 210.658,-218.49 200.984,-222.812 205.791,-227.901"/>
</g>
<!-- ut3 -->
<g id="node8" class="node"><title>ut3</title>
<ellipse fill="grey" stroke="black" cx="319" cy="-289" rx="27.0966" ry="18"/>
<text text-anchor="start" x="306.5" y="-283.5" font-family="Times,serif" font-weight="bold" font-size="14.00">u</text>
<text text-anchor="start" x="313.5" y="-283.5" font-family="Times,serif" baseline-shift="sub" font-size="14.00">t+2</text>
</g>
<!-- ut2&#45;&gt;ut3 -->
<!-- ut2&#45;&gt;xt2 -->
<g id="edge15" class="edge"><title>ut2&#45;&gt;xt2</title>
<path fill="none" stroke="black" d="M243.677,-274.194C257.873,-260.787 278.965,-240.867 295.057,-225.669"/>
<polygon fill="black" stroke="black" points="297.636,-228.047 302.503,-218.636 292.829,-222.958 297.636,-228.047"/>
</g>
<!-- ut3&#45;&gt;xt3 -->
<g id="edge16" class="edge"><title>ut3&#45;&gt;xt3</title>
<path fill="none" stroke="black" d="M336.609,-275.214C342.503,-270.205 349.128,-264.438 355,-259 366.212,-248.618 378.258,-236.668 388.21,-226.565"/>
<polygon fill="black" stroke="black" points="390.87,-228.85 395.364,-219.255 385.868,-223.954 390.87,-228.85"/>
</g>
<!-- zt0&#45;&gt;zt1 -->
<!-- zt0&#45;&gt;ut0 -->
<!-- zt1&#45;&gt;zt2 -->
<!-- zt2&#45;&gt;zt3 -->
<!-- m1 -->
<g id="node13" class="node"><title>m1</title>
<ellipse fill="none" stroke="black" cx="135" cy="-34" rx="27" ry="18"/>
<text text-anchor="start" x="126.5" y="-28.5" font-family="Times,serif" font-weight="bold" font-size="14.00">m</text>
<text text-anchor="start" x="137.39" y="-28.5" font-family="Times,serif" baseline-shift="sub" font-size="14.00">1</text>
</g>
<!-- m2 -->
<g id="node14" class="node"><title>m2</title>
<ellipse fill="none" stroke="black" cx="227" cy="-34" rx="27" ry="18"/>
<text text-anchor="start" x="218.5" y="-28.5" font-family="Times,serif" font-weight="bold" font-size="14.00">m</text>
<text text-anchor="start" x="229.39" y="-28.5" font-family="Times,serif" baseline-shift="sub" font-size="14.00">2</text>
</g>
<!-- m1&#45;&gt;m2 -->
<!-- m1&#45;&gt;zt0 -->
<g id="edge21" class="edge"><title>m1&#45;&gt;zt0</title>
<path fill="none" stroke="black" d="M150.999,-49.1621C162.156,-60.3343 177.837,-75.8144 192,-89 195.176,-91.957 198.561,-95.0315 201.917,-98.0359"/>
<polygon fill="black" stroke="black" points="199.78,-100.818 209.585,-104.83 204.422,-95.5789 199.78,-100.818"/>
</g>
<!-- m3 -->
<g id="node15" class="node"><title>m3</title>
<ellipse fill="none" stroke="black" cx="319" cy="-34" rx="27" ry="18"/>
<text text-anchor="start" x="310.5" y="-28.5" font-family="Times,serif" font-weight="bold" font-size="14.00">m</text>
<text text-anchor="start" x="321.39" y="-28.5" font-family="Times,serif" baseline-shift="sub" font-size="14.00">3</text>
</g>
<!-- m2&#45;&gt;m3 -->
<!-- m2&#45;&gt;zt1 -->
<g id="edge22" class="edge"><title>m2&#45;&gt;zt1</title>
<path fill="none" stroke="black" d="M243.267,-48.4191C257.49,-61.8515 278.885,-82.0578 295.143,-97.4129"/>
<polygon fill="black" stroke="black" points="292.984,-100.188 302.658,-104.51 297.791,-95.0994 292.984,-100.188"/>
</g>
<!-- m4 -->
<g id="node16" class="node"><title>m4</title>
<ellipse fill="none" stroke="black" cx="411" cy="-34" rx="27" ry="18"/>
<text text-anchor="start" x="402.5" y="-28.5" font-family="Times,serif" font-weight="bold" font-size="14.00">m</text>
<text text-anchor="start" x="413.39" y="-28.5" font-family="Times,serif" baseline-shift="sub" font-size="14.00">3</text>
</g>
<!-- m3&#45;&gt;m4 -->
<!-- m3&#45;&gt;zt2 -->
<g id="edge23" class="edge"><title>m3&#45;&gt;zt2</title>
<path fill="none" stroke="black" d="M335.267,-48.4191C349.49,-61.8515 370.885,-82.0578 387.143,-97.4129"/>
<polygon fill="black" stroke="black" points="384.984,-100.188 394.658,-104.51 389.791,-95.0994 384.984,-100.188"/>
</g>
<!-- m4&#45;&gt;zt3 -->
<g id="edge24" class="edge"><title>m4&#45;&gt;zt3</title>
<path fill="none" stroke="black" d="M427.267,-48.4191C441.49,-61.8515 462.885,-82.0578 479.143,-97.4129"/>
<polygon fill="black" stroke="black" points="476.984,-100.188 486.658,-104.51 481.791,-95.0994 476.984,-100.188"/>
</g>
</g>
</svg>
